HIERARCHY
ROOT Hips
{
	OFFSET 0.000000 0.000000 0.000000
	CHANNELS 6 Xposition Yposition Zposition Zrotation Yrotation Xrotation 
	JOINT LeftUpLeg_virtual
	{
		OFFSET 0.000000 0.000000 0.000000
		CHANNELS 3 Zrotation Yrotation Xrotation
		JOINT LeftUpLeg
		{
			OFFSET 10.205400 -3.823500 0.155100
			CHANNELS 3 Zrotation Yrotation Xrotation
			JOINT LeftLeg
			{
				OFFSET 0.708757 -12.982077 0.567790
				CHANNELS 3 Zrotation Yrotation Xrotation
				JOINT LeftFoot
				{
					OFFSET -0.708756 -10.717838 -2.184338
					CHANNELS 3 Zrotation Yrotation Xrotation
					JOINT LeftToeBase
					{
						OFFSET 0.108149 -7.191104 7.560241
						CHANNELS 3 Zrotation Yrotation Xrotation
						End Site
						{
							OFFSET 0.000000 0.000000 0.000000
						}
					}
				}
			}
		}
	}
	JOINT RightUpLeg_virtual
	{
		OFFSET 0.000000 0.000000 0.000000
		CHANNELS 3 Zrotation Yrotation Xrotation
		JOINT RightUpLeg
		{
			OFFSET -10.205400 -3.823500 0.005500
			CHANNELS 3 Zrotation Yrotation Xrotation
			JOINT RightLeg
			{
				OFFSET -0.708756 -12.982134 0.610632
				CHANNELS 3 Zrotation Yrotation Xrotation
				JOINT RightFoot
				{
					OFFSET 0.708754 -10.717769 -1.945823
					CHANNELS 3 Zrotation Yrotation Xrotation
					JOINT RightToeBase
					{
						OFFSET -0.108140 -7.191069 7.372968
						CHANNELS 3 Zrotation Yrotation Xrotation
						End Site
						{
							OFFSET 0.000000 0.000000 0.000000
						}
					}
				}
			}
		}
	}
	JOINT Spine_virtual
	{
		OFFSET 0.000000 0.000000 0.000000
		CHANNELS 3 Zrotation Yrotation Xrotation
		JOINT Spine
		{
			OFFSET 0.000000 6.876099 0.125700
			CHANNELS 3 Zrotation Yrotation Xrotation
			JOINT Spine1
			{
				OFFSET 0.000000 8.022060 0.146608
				CHANNELS 3 Zrotation Yrotation Xrotation
				JOINT Spine2
				{
					OFFSET 0.000000 9.168068 0.167552
					CHANNELS 3 Zrotation Yrotation Xrotation
					JOINT Neck_virtual
					{
						OFFSET 0.000000 0.000000 0.000000
						CHANNELS 3 Zrotation Yrotation Xrotation
						JOINT Neck
						{
							OFFSET 0.000000 10.314075 0.188496
							CHANNELS 3 Zrotation Yrotation Xrotation
							JOINT Head
							{
								OFFSET 0.000000 7.643700 -2.377400
								CHANNELS 3 Zrotation Yrotation Xrotation
								End Site
								{
									OFFSET 0.000000 0.000000 0.000000
								}
							}
						}
					}
					JOINT LeftShoulder_virtual
					{
						OFFSET 0.000000 0.000000 0.000000
						CHANNELS 3 Zrotation Yrotation Xrotation
						JOINT LeftShoulder
						{
							OFFSET 4.392200 8.824978 0.174984
							CHANNELS 3 Zrotation Yrotation Xrotation
							JOINT LeftArm
							{
								OFFSET 8.771219 -2.981674 -0.026999
								CHANNELS 3 Zrotation Yrotation Xrotation
								JOINT LeftForeArm
								{
									OFFSET 8.512804 0.000000 -0.000000
									CHANNELS 3 Zrotation Yrotation Xrotation
									JOINT LeftHand
									{
										OFFSET 18.484802 0.000000 -0.000000
										CHANNELS 3 Zrotation Yrotation Xrotation
										End Site
										{
											OFFSET 0.000000 0.000000 0.000000
										}
									}
								}
							}
						}
					}
					JOINT RightShoulder_virtual
					{
						OFFSET 0.000000 0.000000 0.000000
						CHANNELS 3 Zrotation Yrotation Xrotation
						JOINT RightShoulder
						{
							OFFSET -4.392200 8.824993 0.141379
							CHANNELS 3 Zrotation Yrotation Xrotation
							JOINT RightArm
							{
								OFFSET -8.771282 -2.981682 -0.094208
								CHANNELS 3 Zrotation Yrotation Xrotation
								JOINT RightForeArm
								{
									OFFSET -8.494598 0.000000 0.000000
									CHANNELS 3 Zrotation Yrotation Xrotation
									JOINT RightHand
									{
										OFFSET -18.483803 0.000000 0.000001
										CHANNELS 3 Zrotation Yrotation Xrotation
										End Site
										{
											OFFSET 0.000000 0.000000 0.000000
										}
									}
								}
							}
						}
					}
				}
			}
		}
	}
}
MOTION
Frames: 9
Frame Time: 0.033333
-5.349324 36.095638 29.370953 179.767751 -0.715951 -179.626380 -2.124507 -4.635333 8.602698 -10.208530 12.051257 -20.082771 15.464604 10.910659 19.127542 -4.147412 -2.932789 8.130341 0.000000 0.000000 0.000000 2.240128 -1.663860 6.692297 5.779862 6.896374 -15.975017 -4.615222 3.685544 19.348700 3.703668 4.357173 7.489837 0.000000 0.000000 0.000000 0.354085 -0.222426 -4.415579 0.275615 0.337496 -5.772042 -1.091098 -2.057531 9.433645 0.063272 0.039137 0.076441 -1.670010 0.166682 11.225527 -1.750424 -3.958664 5.942751 0.000000 0.000000 0.000000 0.116079 0.803975 8.847626 -12.161099 -7.798535 3.545181 -55.483273 23.349208 15.908489 0.782726 -44.243018 5.327496 0.000000 0.000000 0.000000 -3.668424 2.010888 8.146074 24.102561 2.822742 3.836980 49.442230 -17.159080 23.012932 -5.631132 34.503230 -5.963378 0.000000 0.000000 0.000000 
-5.320225 36.101002 29.361837 179.745116 -0.993677 -179.477632 -2.063868 -4.817814 8.636351 -10.518480 12.492590 -20.037321 15.295350 11.432441 19.520568 -4.112776 -2.862556 8.142946 0.000000 0.000000 0.000000 2.413438 -1.824183 6.778738 5.516675 7.067905 -15.651300 -4.484432 4.235612 19.584796 4.120763 4.719017 7.728015 0.000000 0.000000 0.000000 0.415782 -0.480593 -4.623558 0.335602 0.384882 -5.919809 -1.047271 -1.876887 9.405088 0.002665 -0.023601 0.143320 -1.531991 0.091720 11.258781 -1.654848 -3.817433 5.903297 0.000000 0.000000 0.000000 0.121157 0.712996 8.873322 -12.179723 -7.629329 3.554818 -55.486261 23.803412 15.895312 0.875620 -44.023055 5.211440 0.000000 0.000000 0.000000 -3.511319 2.018995 8.153846 24.185099 2.772476 3.801538 49.520419 -17.542059 22.783047 -5.605014 34.259573 -5.971649 0.000000 0.000000 0.000000 
-5.278541 36.081341 29.346832 179.746701 -0.925746 -179.493191 -1.988240 -4.796828 8.700686 -10.453106 12.141385 -20.111214 15.288694 11.391990 19.664970 -3.984538 -2.686723 8.134103 0.000000 0.000000 0.000000 2.409405 -1.912710 6.784486 5.583188 6.988366 -15.627828 -4.402764 4.259870 19.644129 4.087255 4.745969 7.479450 0.000000 0.000000 0.000000 0.420665 -0.416252 -4.754766 0.414697 0.566898 -6.017494 -0.970894 -1.986878 9.458489 0.006694 -0.078379 0.082657 -1.420996 0.077829 11.301648 -1.594147 -3.732377 5.857405 0.000000 0.000000 0.000000 0.200282 0.697086 8.927239 -12.226898 -7.375985 3.568327 -55.613193 24.506239 15.856241 0.896802 -43.870151 5.172587 0.000000 0.000000 0.000000 -3.435932 2.034475 8.270373 24.156079 2.721217 3.741935 49.746218 -18.189219 22.447225 -5.609776 34.253897 -6.014686 0.000000 0.000000 0.000000 
-5.230595 36.050030 29.347031 179.643483 -0.844641 -179.525471 -1.954775 -4.806464 8.881245 -10.464128 11.629918 -20.285226 15.268835 11.399371 19.781725 -3.783928 -2.450082 8.061465 0.000000 0.000000 0.000000 2.293729 -2.019602 6.888247 5.672953 6.912308 -15.692798 -4.279753 4.261524 19.717143 3.991575 4.782163 7.180017 0.000000 0.000000 0.000000 0.349708 -0.328965 -4.855379 0.483103 0.700139 -6.129109 -0.872106 -1.951162 9.557910 0.070533 0.011616 0.047604 -1.314335 0.000959 11.299035 -1.590412 -3.700033 5.799918 0.000000 0.000000 0.000000 0.343265 0.620126 8.989638 -12.293994 -7.246490 3.529813 -55.748328 25.128899 15.815686 0.955705 -43.823908 5.101436 0.000000 0.000000 0.000000 -3.391338 1.872970 8.245652 24.051777 2.599221 3.755393 50.071526 -18.891134 22.245412 -5.679526 34.157291 -6.164844 0.000000 0.000000 0.000000 
-5.186030 36.015034 29.346201 179.680543 -0.845610 -179.512917 -1.803318 -4.965426 9.096480 -10.481017 11.197799 -20.529892 15.165095 11.241194 19.850355 -3.559945 -2.117697 8.031526 0.000000 0.000000 0.000000 2.305639 -2.175832 6.987415 5.752340 6.736123 -15.840465 -4.157534 4.341612 19.803937 3.912166 4.876050 6.897223 0.000000 0.000000 0.000000 0.445179 -0.450064 -4.985604 0.576366 0.787642 -6.244954 -0.858402 -1.988428 9.647701 0.034847 0.001313 0.101541 -1.221821 -0.073742 11.243122 -1.396725 -3.557194 5.658098 0.000000 0.000000 0.000000 0.390049 0.628977 8.932119 -12.288668 -6.971318 3.493247 -55.832934 25.589311 15.689590 0.950904 -43.800494 5.115573 0.000000 0.000000 0.000000 -3.331996 1.870171 8.253699 23.936625 2.723378 3.711344 50.395280 -19.392391 22.219239 -5.694705 33.997833 -6.193385 0.000000 0.000000 0.000000 
-5.133228 35.986362 29.344824 179.796602 -0.984025 -179.512657 -1.546860 -5.161361 9.254784 -10.495118 10.682501 -20.728128 14.975847 10.917204 19.863490 -3.310534 -1.666863 8.102104 0.000000 0.000000 0.000000 2.408980 -2.319843 7.050968 5.901616 6.417079 -15.957014 -4.100502 4.467869 19.941728 3.798652 4.959076 6.656541 0.000000 0.000000 0.000000 0.616001 -0.559089 -5.154356 0.729168 0.951441 -6.344392 -0.868832 -1.985683 9.883803 0.053874 0.021547 0.033658 -1.300484 0.067325 11.228286 -1.327160 -3.506459 5.637775 0.000000 0.000000 0.000000 0.302445 0.576983 8.906634 -12.266588 -6.838123 3.432575 -55.804886 25.771289 15.526094 0.930743 -43.985547 5.200945 0.000000 0.000000 0.000000 -3.430569 1.790442 8.257267 23.868463 2.824667 3.710253 50.707984 -19.743966 22.354594 -5.831792 33.704026 -6.356909 0.000000 0.000000 0.000000 
-5.068826 35.970810 29.331804 179.684300 -1.134340 -179.499188 -1.503933 -5.226091 9.327398 -10.472496 10.245647 -20.872134 14.917324 10.804050 19.836609 -3.166220 -1.506531 8.341583 0.000000 0.000000 0.000000 2.343943 -2.269117 7.071093 5.961471 6.091083 -16.023511 -3.927033 4.313894 20.185094 3.668046 4.982756 6.410858 0.000000 0.000000 0.000000 0.696079 -0.679668 -5.317652 0.793805 1.124976 -6.308820 -0.983349 -1.989924 9.788067 0.031969 0.022540 0.144760 -1.339696 -0.043683 11.211827 -1.125427 -3.325975 5.617451 0.000000 0.000000 0.000000 0.254897 0.589115 8.908024 -12.221368 -6.642807 3.477771 -55.692242 25.913383 15.304972 0.918289 -44.244883 5.289524 0.000000 0.000000 0.000000 -3.464548 1.841492 8.333056 23.857342 3.039432 3.667183 50.888591 -19.843236 22.440894 -5.777979 33.457340 -6.294259 0.000000 0.000000 0.000000 
-4.984378 35.966671 29.305103 179.722481 -1.519911 -179.483465 -1.344495 -5.197515 9.304569 -10.301090 9.790607 -20.934074 14.750343 10.547307 19.742366 -3.367266 -1.075336 8.665923 0.000000 0.000000 0.000000 2.458076 -2.145639 7.078448 6.090283 5.641370 -16.017644 -3.834049 4.029506 20.479021 3.524097 4.975852 6.190256 0.000000 0.000000 0.000000 0.864419 -0.690830 -5.597286 0.879574 1.197439 -6.229297 -1.121200 -2.078504 9.886475 -0.005213 0.108958 0.092960 -1.523575 -0.035890 11.372250 -1.046898 -3.220782 5.737087 0.000000 0.000000 0.000000 0.091850 0.570278 8.950005 -12.049809 -6.502717 3.516407 -55.470896 25.980250 14.995732 0.758149 -44.776118 5.599194 0.000000 0.000000 0.000000 -3.592829 1.855005 8.413385 23.947683 3.250577 3.640639 50.942969 -19.685741 22.518568 -5.783832 33.269182 -6.256835 0.000000 0.000000 0.000000 
-4.868811 35.962456 29.280678 179.806752 -2.131416 -179.467455 -1.103452 -5.081314 9.195881 -10.222240 9.260501 -20.949529 14.866904 10.314204 19.603386 -3.691891 -0.845710 8.978482 0.000000 0.000000 0.000000 2.569279 -1.981196 7.117466 6.281588 5.107382 -15.987046 -3.834431 3.534914 20.802489 3.395656 4.950823 5.970058 0.000000 0.000000 0.000000 1.029875 -0.691696 -5.874924 0.919038 1.423389 -6.087401 -1.198572 -2.001733 9.978239 0.007641 0.050893 0.178289 -1.659800 -0.202030 11.348225 -0.967657 -3.108234 5.822131 0.000000 0.000000 0.000000 -0.001639 0.480586 8.835267 -11.888467 -6.483325 3.634087 -55.163924 25.843546 14.500683 0.625623 -45.539084 5.873765 0.000000 0.000000 0.000000 -3.698639 1.745079 8.281336 24.138986 3.315838 3.631295 50.883724 -19.305584 22.440962 -5.720463 33.344891 -6.095596 0.000000 0.000000 0.000000 
